<?xml version="1.0" encoding="UTF-8"?>
<svg width="1024" height="1024" viewBox="0 0 1024 1024" fill="none" xmlns="http://www.w3.org/2000/svg">
<path d="M512 85.3333C276.352 85.3333 85.3334 276.352 85.3334 512C85.3334 747.648 276.352 938.667 512 938.667C747.648 938.667 938.667 747.648 938.667 512C938.667 276.352 747.648 85.3333 512 85.3333ZM512 853.333C323.584 853.333 170.667 700.416 170.667 512C170.667 323.584 323.584 170.667 512 170.667C700.416 170.667 853.333 323.584 853.333 512C853.333 700.416 700.416 853.333 512 853.333Z" fill="#333333"/>
<path d="M469.333 341.333V256H554.667V341.333H682.667V426.667H341.333V597.333H554.667C578.219 597.333 597.333 616.448 597.333 640V682.667C597.333 706.219 578.219 725.333 554.667 725.333H341.333V810.667H469.333V896H554.667V810.667H682.667V725.333H554.667H469.333V682.667H597.333C644.462 682.667 682.667 644.462 682.667 597.333V554.667C682.667 507.538 644.462 469.333 597.333 469.333H341.333V426.667H469.333V341.333Z" fill="#333333"/>
</svg>
