<?xml version="1.0" encoding="UTF-8"?>
<svg width="1024" height="1024" viewBox="0 0 1024 1024" fill="none" xmlns="http://www.w3.org/2000/svg">
<path fill="#111" fill-rule="evenodd" d="M380 120H800A60 60 0 0 1 860 180V820A60 60 0 0 1 800 880H812V468H492V328H320V180A60 60 0 0 1 380 120ZM380 180H800A20 20 0 0 1 820 200V280A20 20 0 0 1 800 300H380A20 20 0 0 1 360 280V200A20 20 0 0 1 380 180ZM540 340H650A16 16 0 0 1 666 356V430A16 16 0 0 1 650 446H540A16 16 0 0 1 524 430V356A16 16 0 0 1 540 340ZM690 340H800A16 16 0 0 1 816 356V430A16 16 0 0 1 800 446H690A16 16 0 0 1 674 430V356A16 16 0 0 1 690 340Z"/>
<path fill="#111" fill-rule="evenodd" d="M180 360H420A40 40 0 0 1 460 400V840A40 40 0 0 1 420 880H180A40 40 0 0 1 140 840V400A40 40 0 0 1 180 360ZM140 472H460V496H140V472ZM140 608H460V632H140V608ZM140 744H460V768H140V744Z"/>
<path fill="#111" fill-rule="evenodd" d="M520 500H740A40 40 0 0 1 780 540V840A40 40 0 0 1 740 880H520A40 40 0 0 1 480 840V540A40 40 0 0 1 520 500ZM480 610H780V634H480V610ZM480 744H780V768H480V744Z"/>
</svg>
